<svg width="32" height="32" viewBox="0 0 32 32" xmlns="http://www.w3.org/2000/svg">
  <rect x="11" y="9" width="1" height="1" fill="currentColor"/>
  <rect x="12" y="9" width="1" height="1" fill="currentColor"/>
  <rect x="19" y="9" width="1" height="1" fill="currentColor"/>
  <rect x="20" y="9" width="1" height="1" fill="currentColor"/>
  <rect x="10" y="10" width="1" height="1" fill="currentColor"/>
  <rect x="13" y="10" width="1" height="1" fill="currentColor"/>
  <rect x="18" y="10" width="1" height="1" fill="currentColor"/>
  <rect x="21" y="10" width="1" height="1" fill="currentColor"/>
  <rect x="10" y="11" width="1" height="1" fill="currentColor"/>
  <rect x="13" y="11" width="1" height="1" fill="currentColor"/>
  <rect x="18" y="11" width="1" height="1" fill="currentColor"/>
  <rect x="21" y="11" width="1" height="1" fill="currentColor"/>
  <rect x="11" y="12" width="1" height="1" fill="currentColor"/>
  <rect x="12" y="12" width="1" height="1" fill="currentColor"/>
  <rect x="13" y="12" width="1" height="1" fill="currentColor"/>
  <rect x="18" y="12" width="1" height="1" fill="currentColor"/>
  <rect x="19" y="12" width="1" height="1" fill="currentColor"/>
  <rect x="20" y="12" width="1" height="1" fill="currentColor"/>
  <rect x="13" y="13" width="1" height="1" fill="currentColor"/>
  <rect x="18" y="13" width="1" height="1" fill="currentColor"/>
  <rect x="9" y="14" width="1" height="1" fill="currentColor"/>
  <rect x="10" y="14" width="1" height="1" fill="currentColor"/>
  <rect x="14" y="14" width="1" height="1" fill="currentColor"/>
  <rect x="15" y="14" width="1" height="1" fill="currentColor"/>
  <rect x="16" y="14" width="1" height="1" fill="currentColor"/>
  <rect x="17" y="14" width="1" height="1" fill="currentColor"/>
  <rect x="21" y="14" width="1" height="1" fill="currentColor"/>
  <rect x="22" y="14" width="1" height="1" fill="currentColor"/>
  <rect x="8" y="15" width="1" height="1" fill="currentColor"/>
  <rect x="11" y="15" width="1" height="1" fill="currentColor"/>
  <rect x="14" y="15" width="1" height="1" fill="currentColor"/>
  <rect x="17" y="15" width="1" height="1" fill="currentColor"/>
  <rect x="20" y="15" width="1" height="1" fill="currentColor"/>
  <rect x="23" y="15" width="1" height="1" fill="currentColor"/>
  <rect x="8" y="16" width="1" height="1" fill="currentColor"/>
  <rect x="11" y="16" width="1" height="1" fill="currentColor"/>
  <rect x="12" y="16" width="1" height="1" fill="currentColor"/>
  <rect x="13" y="16" width="1" height="1" fill="currentColor"/>
  <rect x="14" y="16" width="1" height="1" fill="currentColor"/>
  <rect x="17" y="16" width="1" height="1" fill="currentColor"/>
  <rect x="18" y="16" width="1" height="1" fill="currentColor"/>
  <rect x="19" y="16" width="1" height="1" fill="currentColor"/>
  <rect x="20" y="16" width="1" height="1" fill="currentColor"/>
  <rect x="23" y="16" width="1" height="1" fill="currentColor"/>
  <rect x="9" y="17" width="1" height="1" fill="currentColor"/>
  <rect x="10" y="17" width="1" height="1" fill="currentColor"/>
  <rect x="14" y="17" width="1" height="1" fill="currentColor"/>
  <rect x="15" y="17" width="1" height="1" fill="currentColor"/>
  <rect x="16" y="17" width="1" height="1" fill="currentColor"/>
  <rect x="17" y="17" width="1" height="1" fill="currentColor"/>
  <rect x="21" y="17" width="1" height="1" fill="currentColor"/>
  <rect x="22" y="17" width="1" height="1" fill="currentColor"/>
  <rect x="13" y="18" width="1" height="1" fill="currentColor"/>
  <rect x="18" y="18" width="1" height="1" fill="currentColor"/>
  <rect x="11" y="19" width="1" height="1" fill="currentColor"/>
  <rect x="12" y="19" width="1" height="1" fill="currentColor"/>
  <rect x="13" y="19" width="1" height="1" fill="currentColor"/>
  <rect x="18" y="19" width="1" height="1" fill="currentColor"/>
  <rect x="19" y="19" width="1" height="1" fill="currentColor"/>
  <rect x="20" y="19" width="1" height="1" fill="currentColor"/>
  <rect x="10" y="20" width="1" height="1" fill="currentColor"/>
  <rect x="13" y="20" width="1" height="1" fill="currentColor"/>
  <rect x="18" y="20" width="1" height="1" fill="currentColor"/>
  <rect x="21" y="20" width="1" height="1" fill="currentColor"/>
  <rect x="10" y="21" width="1" height="1" fill="currentColor"/>
  <rect x="13" y="21" width="1" height="1" fill="currentColor"/>
  <rect x="18" y="21" width="1" height="1" fill="currentColor"/>
  <rect x="21" y="21" width="1" height="1" fill="currentColor"/>
  <rect x="11" y="22" width="1" height="1" fill="currentColor"/>
  <rect x="12" y="22" width="1" height="1" fill="currentColor"/>
  <rect x="19" y="22" width="1" height="1" fill="currentColor"/>
  <rect x="20" y="22" width="1" height="1" fill="currentColor"/>
</svg>
